<?xml version="1.0" encoding="iso-8859-1"?>
<!-- Generator: Adobe Illustrator 19.0.0, SVG Export Plug-In . SVG Version: 6.00 Build 0)  -->
<svg version="1.1" id="Capa_1" xmlns="http://www.w3.org/2000/svg" xmlns:xlink="http://www.w3.org/1999/xlink" x="0px" y="0px"
	 viewBox="0 0 340.001 340.001" style="enable-background:new 0 0 340.001 340.001;" xml:space="preserve">
<g id="XMLID_468_">
	<rect id="XMLID_36_" x="163.929" y="279.286" style="fill:#78B9EB;" width="72.857" height="60.714"/>
	<rect id="XMLID_35_" x="91.072" y="279.286" style="fill:#006DF0;" width="72.857" height="60.715"/>
	<path id="XMLID_469_" style="fill:#0052B4;" d="M163.929,230.715H91.073c-13.413,0-24.286,10.872-24.286,24.286
		s10.873,24.286,24.286,24.286h72.856V230.715z"/>
	<path id="XMLID_470_" style="fill:#006DF0;" d="M163.929,230.715h72.857c13.413,0,24.286,10.872,24.286,24.286
		s-10.873,24.286-24.286,24.286h-72.857V230.715z"/>
	<path id="XMLID_472_" style="fill:#FFDA44;" d="M200.359,163.929c0-16.766,13.591-30.357,30.355-30.357
		c4.648,0,9.053,1.049,12.991,2.917l29.509-39.346L183.61,29.938L188.214,0C30.359,36.429,91.073,230.715,91.073,230.715h145.714
		C236.787,230.715,200.359,180.695,200.359,163.929z"/>
	<path id="XMLID_473_" style="fill:#FF9811;" d="M164.388,7.414C36.031,57.279,91.532,230.715,91.532,230.715h72.856V7.414z"/>
</g>
<g>
</g>
<g>
</g>
<g>
</g>
<g>
</g>
<g>
</g>
<g>
</g>
<g>
</g>
<g>
</g>
<g>
</g>
<g>
</g>
<g>
</g>
<g>
</g>
<g>
</g>
<g>
</g>
<g>
</g>
</svg>
